<svg xmlns="http://www.w3.org/2000/svg" viewBox="0 0 512 512">
  <defs>
    <linearGradient id="bg" x1="0%" x2="100%" y1="0%" y2="100%">
      <stop offset="0%" stop-color="#0a1930"/>
      <stop offset="100%" stop-color="#0f6d91"/>
    </linearGradient>
    <linearGradient id="glow" x1="0%" x2="100%" y1="0%" y2="100%">
      <stop offset="0%" stop-color="#56d6ff"/>
      <stop offset="100%" stop-color="#4a7bff"/>
    </linearGradient>
  </defs>
  <rect width="512" height="512" rx="112" fill="url(#bg)"/>
  <circle cx="256" cy="256" r="188" fill="rgba(255,255,255,0.04)"/>
  <path d="M150 130h86c80 0 124 36 124 100 0 47-24 79-67 93l78 59v14h-65l-92-70h-3v70h-61V130zm61 49v101h20c43 0 67-18 67-50 0-34-24-51-72-51h-15z" fill="#ebf2ff"/>
  <path d="M319 150l43 32-86 113-36-28z" fill="url(#glow)"/>
</svg>
